<svg xmlns="http://www.w3.org/2000/svg" viewBox="0 0 1688 281" width="1688" height="281" role="img" aria-label="Strumfolio"><title>Strumfolio</title><path fill="currentColor" d="M70.5 279.4C46.1 275.6 26.9 265.2 8.1 245.5L-0.3 236.8L14.5 222.0L29.2 207.3L39.8 217.9C57.6 235.7 70.5 240.6 97.0 239.7C127.4 238.7 142.5 227.3 142.4 205.4C142.4 184.6 130.2 174.0 91.0 160.4C58.8 149.3 46.7 142.9 35.0 131.1C22.2 118.2 17.0 104.0 17.0 82.3C17.1 61.0 22.7 46.3 35.9 33.0C47.1 21.7 60.6 14.5 78.5 10.4C90.7 7.5 118.2 7.8 130.4 10.8C147.4 15.1 166.5 25.9 178.5 38.0L184.5 44.0L169.5 59.0L154.6 73.9L148.5 68.1C140.6 60.5 131.6 54.7 123.2 51.8C113.4 48.4 89.3 48.4 80.7 51.9C67.8 57.0 60.8 66.2 60.7 78.2C60.5 97.5 72.2 107.3 111.5 121.0C142.4 131.8 157.0 139.8 168.5 152.2C180.7 165.4 186.0 180.8 186.0 202.9C186.0 228.8 178.1 246.6 160.0 261.1C139.5 277.5 104.5 284.7 70.5 279.4ZM558.8 280.0C529.0 274.6 506.6 254.7 497.8 226.0C495.6 218.6 495.6 217.7 495.2 156.8L494.9 95.0L515.9 95.0L536.9 95.0L537.2 154.2L537.5 213.5L539.8 219.3C550.5 245.8 593.3 248.5 606.2 223.5C611.3 213.7 611.3 213.3 611.7 152.2L612.1 95.0L632.6 95.0L653.1 95.0L652.7 157.2C652.4 226.8 652.6 223.7 645.0 239.5C635.7 258.7 617.6 273.4 597.0 278.5C589.5 280.4 565.8 281.3 558.8 280.0ZM1206.3 279.6C1167.2 272.1 1136.8 241.2 1130.4 202.3C1122.3 152.9 1152.0 106.8 1199.9 94.3C1212.2 91.1 1232.9 90.7 1245.5 93.4C1295.4 104.2 1327.0 151.3 1318.6 202.3C1312.6 238.5 1285.0 268.8 1249.5 278.1C1239.2 280.8 1216.8 281.6 1206.3 279.6ZM1578.0 280.4C1544.7 274.2 1520.3 256.6 1506.5 228.5C1499.8 214.9 1497.9 207.0 1497.3 189.9C1496.2 161.5 1503.6 141.1 1521.9 121.7C1578.6 62.0 1679.4 95.2 1686.9 176.1C1690.3 212.8 1674.4 246.5 1644.7 265.8C1628.6 276.2 1615.8 280.0 1595.0 280.5C1587.0 280.7 1579.4 280.7 1578.0 280.4ZM244.0 205.0L244.0 133.0L222.5 133.0L201.0 133.0L201.0 114.0L201.0 95.0L222.5 95.0L244.0 95.0L244.0 57.0L244.0 19.0L265.0 19.0L286.0 19.0L286.0 57.0L286.0 95.0L308.0 95.0L330.0 95.0L330.0 114.0L330.0 133.0L308.0 133.0L286.0 133.0L286.0 205.0L286.0 277.0L265.0 277.0L244.0 277.0L244.0 205.0ZM353.0 186.0L353.0 95.0L373.5 95.0L394.0 95.0L394.0 104.1L394.0 113.2L399.8 107.3C410.6 96.4 423.1 91.7 441.5 91.7C458.6 91.7 469.9 95.9 481.5 106.5L487.4 112.0L474.0 125.7C466.6 133.3 460.1 139.7 459.7 139.9C459.2 140.1 457.6 139.1 456.2 137.7C444.3 126.3 417.1 129.2 404.6 143.1C394.8 154.0 394.0 159.5 394.0 224.8L394.0 277.0L373.5 277.0L353.0 277.0L353.0 186.0ZM688.0 186.0L688.0 95.0L709.0 95.0L730.0 95.0L730.0 104.0C730.0 112.6 730.1 112.9 731.8 111.2C745.0 98.1 761.5 91.7 782.0 91.7C805.0 91.7 824.1 100.1 836.0 115.3L840.3 120.8L847.4 113.6C881.7 78.8 943.8 86.1 964.4 127.3C971.6 141.7 971.4 139.2 971.8 211.8L972.1 277.0L951.1 277.0L930.1 277.0L929.8 217.8C929.4 150.2 929.8 153.4 920.7 143.4C902.3 123.2 865.4 127.9 854.1 152.0L851.5 157.5L851.2 217.2L850.9 277.0L830.0 277.0L809.1 277.0L808.8 217.8L808.5 158.5L805.6 152.3C792.1 123.1 746.2 123.4 732.7 152.8C730.5 157.4 730.5 158.3 730.2 217.2L729.9 277.0L709.0 277.0L688.0 277.0L688.0 186.0ZM1029.8 205.2L1029.5 133.5L1007.8 133.2L986.0 133.0L986.0 114.0L986.0 95.0L1008.0 95.0L1030.0 95.0L1030.0 77.8C1030.0 49.1 1034.4 36.4 1049.4 21.4C1062.0 8.8 1074.2 3.2 1093.6 0.9C1115.4 -1.7 1133.4 4.0 1149.5 18.3L1153.5 21.9L1139.9 35.5L1126.3 49.2L1121.7 45.7C1109.7 36.5 1090.3 37.6 1080.0 47.9C1073.2 54.7 1071.9 59.2 1071.3 78.8L1070.7 95.0L1098.4 95.0L1126.0 95.0L1126.0 114.0L1126.0 133.0L1098.8 133.2L1071.5 133.5L1071.2 205.2L1071.0 277.0L1050.5 277.0L1030.0 277.0L1029.8 205.2ZM1347.0 140.5L1347.0 4.0L1368.0 4.0L1389.0 4.0L1389.0 140.5L1389.0 277.0L1368.0 277.0L1347.0 277.0L1347.0 140.5ZM1428.0 186.0L1428.0 95.0L1448.5 95.0L1469.0 95.0L1469.0 186.0L1469.0 277.0L1448.5 277.0L1428.0 277.0L1428.0 186.0ZM1236.3 239.5C1261.8 234.1 1278.3 210.9 1276.7 182.5C1275.0 152.5 1253.7 132.0 1224.4 132.0C1198.5 132.0 1178.7 147.8 1173.5 172.5C1164.7 214.1 1196.4 248.0 1236.3 239.5ZM1603.5 239.5C1619.2 236.2 1631.8 226.5 1638.3 212.8C1653.9 179.8 1638.7 141.9 1606.5 133.5C1577.2 125.9 1548.7 142.3 1541.4 171.0C1538.9 180.8 1539.9 198.2 1543.4 207.5C1552.7 232.0 1577.2 245.0 1603.5 239.5ZM1440.6 60.8C1435.2 59.3 1426.5 50.7 1425.1 45.5C1421.4 31.8 1427.1 18.2 1438.7 13.3C1443.4 11.4 1454.7 11.7 1459.5 13.9C1476.3 21.5 1477.8 48.4 1461.9 58.2C1456.7 61.5 1447.1 62.6 1440.6 60.8Z"/></svg>
